<svg width="256" height="256" viewBox="0 0 256 256" fill="none" xmlns="http://www.w3.org/2000/svg">
  <rect width="256" height="256" rx="56" fill="url(#paint0_linear)"/>
  <path d="M40 142c44-12 55-65 118-65 33 0 54 15 68 36-20-8-39-4-54 4 12 9 25 24 29 40-24-11-46-11-66 2-23 15-32 45-74 45-28 0-42-15-51-36 15 4 32 2 44-7-7-4-12-11-14-19z" stroke="white" stroke-width="12" stroke-linecap="round" stroke-linejoin="round"/>
  <path d="M88 78c17 0 30 12 36 28" stroke="white" stroke-width="12" stroke-linecap="round"/>
  <defs>
    <linearGradient id="paint0_linear" x1="28" y1="24" x2="230" y2="236" gradientUnits="userSpaceOnUse">
      <stop stop-color="#3B82F6"/>
      <stop offset="1" stop-color="#6366F1"/>
    </linearGradient>
  </defs>
</svg>
